<svg xmlns="http://www.w3.org/2000/svg" viewBox="0 0 480 480"><path d="M421.648 74.336L349.664 2.352A7.954 7.954 0 0 0 344 0H96C73.944 0 56 17.944 56 40v400c0 22.056 17.944 40 40 40h288c22.056 0 40-17.944 40-40V80a7.954 7.954 0 0 0-2.352-5.664zM352 27.312L396.688 72H352V27.312zM408 440c0 13.232-10.768 24-24 24H96c-13.232 0-24-10.768-24-24V40c0-13.232 10.768-24 24-24h240v64c0 4.424 3.584 8 8 8h64v352z"/><path d="M128 112c-17.648 0-32 14.352-32 32s14.352 32 32 32 32-14.352 32-32-14.352-32-32-32zm0 48c-8.824 0-16-7.176-16-16s7.176-16 16-16 16 7.176 16 16-7.176 16-16 16zM128 200c-17.648 0-32 14.352-32 32s14.352 32 32 32 32-14.352 32-32-14.352-32-32-32zm0 48c-8.824 0-16-7.176-16-16s7.176-16 16-16 16 7.176 16 16-7.176 16-16 16zM128 288c-17.648 0-32 14.352-32 32s14.352 32 32 32 32-14.352 32-32-14.352-32-32-32zm0 48c-8.824 0-16-7.176-16-16s7.176-16 16-16 16 7.176 16 16-7.176 16-16 16zM128 376c-17.648 0-32 14.352-32 32s14.352 32 32 32 32-14.352 32-32-14.352-32-32-32zm0 48c-8.824 0-16-7.176-16-16s7.176-16 16-16 16 7.176 16 16-7.176 16-16 16zM176 152h208v16H176zM184 40h112v16H184zM160 72h160v16H160zM176 240h208v16H176zM176 328h208v16H176zM176 416h208v16H176zM240 120h16v16h-16zM208 120h16v16h-16zM176 120h16v16h-16z"/></svg>