<svg xmlns="http://www.w3.org/2000/svg" viewBox="0 0 480 480"><path d="M240 0C124.784 0 56 71.776 56 192c0 130.296 171.472 279.76 178.776 286.056 1.496 1.296 3.36 1.944 5.224 1.944s3.728-.648 5.224-1.944C252.528 471.76 424 322.296 424 192 424 71.776 355.216 0 240 0zm0 461.272C211.048 434.952 72 302.728 72 192 72 81.792 134.808 16 240 16s168 65.792 168 176c0 110.728-139.048 242.952-168 269.272z"/><path d="M240 40c-74.992 0-136 61.008-136 136s61.008 136 136 136 136-61.008 136-136S314.992 40 240 40zm0 256c-66.168 0-120-53.832-120-120S173.832 56 240 56s120 53.832 120 120-53.832 120-120 120z"/><path d="M312 120h-40v-16c0-8.824-7.176-16-16-16h-32c-8.824 0-16 7.176-16 16v16h-40c-4.416 0-8 3.584-8 8v96c0 4.416 3.584 8 8 8h144c4.416 0 8-3.584 8-8v-96c0-4.416-3.584-8-8-8zm-88-16h32v16h-32v-16zm80 112H176v-40.208c6.704 5.08 14.96 8.208 24 8.208h32v8h16v-8h32c9.04 0 17.296-3.128 24-8.208V216zm0-72c0 13.232-10.768 24-24 24h-80c-13.232 0-24-10.768-24-24v-8h128v8zM200 248h16v16h-16zM232 248h16v16h-16zM264 248h16v16h-16zM336 440h16v16h-16zM368 440h16v16h-16zM400 440h16v16h-16zM64 440h16v16H64zM96 440h16v16H96zM128 440h16v16h-16z"/></svg>