<svg width="144" height="133" viewBox="0 0 144 133" xmlns="http://www.w3.org/2000/svg" xmlns:xlink="http://www.w3.org/1999/xlink"><title>Group 10</title><defs><path id="a" d="M.013 102.987h78.8V0H.012z"/></defs><g fill="none" fill-rule="evenodd"><g transform="rotate(-15 154.622 -134.192)"><mask id="b" fill="#fff"><use xlink:href="#a"/></mask><path d="M75.386 94.417c0 2.839-2.306 5.15-5.14 5.15H8.566c-2.833 0-5.14-2.311-5.14-5.15V8.583c0-2.839 2.307-5.15 5.14-5.15h51.4v13.734c0 .949.768 1.716 1.713 1.716h13.707v75.534zM63.393 5.86l9.57 9.589h-9.57V5.86zm14.916 10.09L62.892.505A1.702 1.702 0 0 0 61.68 0H8.567C3.843 0 0 3.85 0 8.583v85.834C0 99.15 3.843 103 8.567 103h61.679c4.723 0 8.566-3.85 8.566-8.583v-77.25c0-.476-.191-.905-.503-1.216z" fill="#0D2748" mask="url(#b)"/></g><path d="M63.78 64.62a3.433 3.433 0 0 1-1.777-6.633 3.433 3.433 0 0 1 1.778 6.632zm-2.665-9.95c-3.651.978-5.823 4.749-4.843 8.407.98 3.658 4.746 5.837 8.397 4.859 3.65-.979 5.823-4.749 4.843-8.407-.98-3.658-4.747-5.837-8.397-4.859zM68.668 82.86a3.433 3.433 0 0 1-1.777-6.634 3.433 3.433 0 0 1 1.777 6.633zm-2.666-9.95c-3.65.978-5.823 4.749-4.842 8.407.98 3.657 4.746 5.837 8.397 4.858 3.65-.978 5.822-4.748 4.842-8.406-.98-3.658-4.746-5.837-8.397-4.859zM73.555 101.099a3.433 3.433 0 0 1-1.777-6.633 3.433 3.433 0 0 1 1.777 6.633zM70.89 91.15c-3.65.978-5.822 4.748-4.842 8.406.98 3.658 4.746 5.838 8.397 4.86 3.65-.979 5.823-4.75 4.842-8.407-.98-3.658-4.746-5.837-8.397-4.859zM78.443 119.339a3.433 3.433 0 0 1-1.778-6.633 3.433 3.433 0 0 1 1.778 6.633zm-2.666-9.95c-3.651.98-5.823 4.75-4.843 8.407.98 3.658 4.746 5.837 8.397 4.86 3.651-.979 5.823-4.75 4.843-8.407-.98-3.658-4.746-5.837-8.397-4.86zM74.154 63.617l43.029-11.53-.889-3.316-43.028 11.53zM69.59 39.959l23.168-6.208-.888-3.317-23.17 6.209zM66.402 47.922L99.5 39.053l-.888-3.316-33.1 8.869zM79.042 81.857l43.028-11.53-.889-3.316-43.028 11.53zM83.93 100.097l43.027-11.53-.888-3.316L83.04 96.78zM88.817 118.336l43.028-11.529-.889-3.316-43.028 11.53zM85.617 53.437l3.31-.887-.89-3.317-3.309.887zM78.997 55.21l3.31-.887-.889-3.316-3.31.887zM72.377 56.984l3.31-.887-.889-3.316-3.31.887z" fill="#0D2748"/><g transform="rotate(-15 303.069 37.368)" fill="#0D2748"><rect width="41" height="5" rx="1"/><rect x="25.381" y="13.103" width="20" height="5" rx="1"/><rect x="26.653" y="40.638" width="18.729" height="5" rx="1"/><rect x="15" y="27" width="26" height="5" rx="1"/><rect x="4" y="27" width="5" height="5" rx="1"/></g><g><path d="M140.464 11.487c-2.083-3.533-4.908-6.33-8.477-8.393C128.418 1.032 124.52 0 120.295 0s-8.124 1.032-11.692 3.094c-3.57 2.061-6.395 4.86-8.478 8.393C98.04 15.022 97 18.882 97 23.067c0 4.182 1.041 8.041 3.125 11.577 2.083 3.533 4.908 6.332 8.476 8.393 3.57 2.062 7.468 3.094 11.694 3.094 4.226 0 8.123-1.032 11.692-3.094 3.568-2.061 6.394-4.86 8.477-8.393 2.082-3.536 3.123-7.395 3.123-11.578 0-4.184-1.041-8.045-3.123-11.579z" fill="#36BD77"/><path d="M131.138 21.085l-11.824 11.709c-.276.272-.609.41-1.002.41a1.35 1.35 0 0 1-.98-.41l-7.882-7.805a1.312 1.312 0 0 1-.392-.971c0-.403.13-.734.392-.993l1.98-1.94a1.35 1.35 0 0 1 .98-.41c.38 0 .705.137.981.41l4.921 4.873 8.885-8.776c.275-.273.603-.41.98-.41s.705.137.98.41l1.981 1.94c.263.26.393.59.393.992 0 .389-.13.712-.393.97z" fill="#FFF"/></g></g></svg>