<?xml version="1.0" encoding="UTF-8" standalone="no"?>
<svg width="144px" height="133px" viewBox="0 0 144 133" version="1.1" xmlns="http://www.w3.org/2000/svg" xmlns:xlink="http://www.w3.org/1999/xlink">
    <!-- Generator: Sketch 42 (36781) - http://www.bohemiancoding.com/sketch -->
    <title>Group 10</title>
    <desc>Created with Sketch.</desc>
    <defs>
        <polygon id="path-1" points="0.0128498504 102.987125 78.8124157 102.987125 78.8124157 1.56319402e-13 0.0128498504 1.56319402e-13"></polygon>
    </defs>
    <g id="Home-generica" stroke="none" stroke-width="1" fill="none" fill-rule="evenodd">
        <g id="Form-conferma-invio" transform="translate(-629.000000, -400.000000)">
            <g id="Group-10" transform="translate(629.000000, 400.000000)">
                <g id="Group-7" transform="translate(0.000000, 15.000000)">
                    <g id="list" transform="translate(91.483251, 59.968532) rotate(-15.000000) translate(-91.483251, -59.968532) translate(51.983251, 8.468532)">
                        <g id="Group-3" transform="translate(-0.000000, -0.000000)">
                            <mask id="mask-2" fill="white">
                                <use xlink:href="#path-1"></use>
                            </mask>
                            <g id="Clip-2"></g>
                            <path d="M75.3857889,94.4166667 C75.3857889,97.2560333 73.0796691,99.5666667 70.2458487,99.5666667 L8.56656692,99.5666667 C5.73274658,99.5666667 3.42662677,97.2560333 3.42662677,94.4166667 L3.42662677,8.58333333 C3.42662677,5.74396667 5.73274658,3.43333333 8.56656692,3.43333333 L59.9659684,3.43333333 L59.9659684,17.1666667 C59.9659684,18.1159833 60.7335328,18.8833333 61.6792818,18.8833333 L75.3857889,18.8833333 L75.3857889,94.4166667 Z M63.3925952,5.8607 L72.9631638,15.45 L63.3925952,15.45 L63.3925952,5.8607 Z M78.3087015,15.9512667 L62.8923077,0.5047 C62.582198,0.192266667 62.1538696,-3.55271368e-15 61.6792818,-3.55271368e-15 L8.56656692,-3.55271368e-15 C3.84296192,-3.55271368e-15 0,3.85048333 0,8.58333333 L0,94.4166667 C0,99.1495167 3.84296192,103 8.56656692,103 L70.2458487,103 C74.9694537,103 78.8124157,99.1495167 78.8124157,94.4166667 L78.8124157,17.1666667 C78.8124157,16.69115 78.6205246,16.2619833 78.3087015,15.9512667 L78.3087015,15.9512667 Z" id="Fill-1" fill="#0D2748" mask="url(#mask-2)"></path>
                        </g>
                        <path d="M15.4198205,34.3333333 C13.5300358,34.3333333 11.9931937,32.7934833 11.9931937,30.9 C11.9931937,29.0065167 13.5300358,27.4666667 15.4198205,27.4666667 C17.3096051,27.4666667 18.8464472,29.0065167 18.8464472,30.9 C18.8464472,32.7934833 17.3096051,34.3333333 15.4198205,34.3333333 Z M15.4198205,24.0333333 C11.6402511,24.0333333 8.56656692,27.1130333 8.56656692,30.9 C8.56656692,34.6869667 11.6402511,37.7666667 15.4198205,37.7666667 C19.1993898,37.7666667 22.273074,34.6869667 22.273074,30.9 C22.273074,27.1130333 19.1993898,24.0333333 15.4198205,24.0333333 L15.4198205,24.0333333 Z" id="Fill-4" fill="#0D2748"></path>
                        <path d="M15.4198205,53.2166667 C13.5300358,53.2166667 11.9931937,51.6768167 11.9931937,49.7833333 C11.9931937,47.88985 13.5300358,46.35 15.4198205,46.35 C17.3096051,46.35 18.8464472,47.88985 18.8464472,49.7833333 C18.8464472,51.6768167 17.3096051,53.2166667 15.4198205,53.2166667 Z M15.4198205,42.9166667 C11.6402511,42.9166667 8.56656692,45.9963667 8.56656692,49.7833333 C8.56656692,53.5703 11.6402511,56.65 15.4198205,56.65 C19.1993898,56.65 22.273074,53.5703 22.273074,49.7833333 C22.273074,45.9963667 19.1993898,42.9166667 15.4198205,42.9166667 L15.4198205,42.9166667 Z" id="Fill-5" fill="#0D2748"></path>
                        <path d="M15.4198205,72.1 C13.5300358,72.1 11.9931937,70.56015 11.9931937,68.6666667 C11.9931937,66.7731833 13.5300358,65.2333333 15.4198205,65.2333333 C17.3096051,65.2333333 18.8464472,66.7731833 18.8464472,68.6666667 C18.8464472,70.56015 17.3096051,72.1 15.4198205,72.1 Z M15.4198205,61.8 C11.6402511,61.8 8.56656692,64.8797 8.56656692,68.6666667 C8.56656692,72.4536333 11.6402511,75.5333333 15.4198205,75.5333333 C19.1993898,75.5333333 22.273074,72.4536333 22.273074,68.6666667 C22.273074,64.8797 19.1993898,61.8 15.4198205,61.8 L15.4198205,61.8 Z" id="Fill-6" fill="#0D2748"></path>
                        <path d="M15.4198205,90.9833333 C13.5300358,90.9833333 11.9931937,89.4434833 11.9931937,87.55 C11.9931937,85.6565167 13.5300358,84.1166667 15.4198205,84.1166667 C17.3096051,84.1166667 18.8464472,85.6565167 18.8464472,87.55 C18.8464472,89.4434833 17.3096051,90.9833333 15.4198205,90.9833333 Z M15.4198205,80.6833333 C11.6402511,80.6833333 8.56656692,83.7630333 8.56656692,87.55 C8.56656692,91.3369667 11.6402511,94.4166667 15.4198205,94.4166667 C19.1993898,94.4166667 22.273074,91.3369667 22.273074,87.55 C22.273074,83.7630333 19.1993898,80.6833333 15.4198205,80.6833333 L15.4198205,80.6833333 Z" id="Fill-7" fill="#0D2748"></path>
                        <polygon id="Fill-8" fill="#0D2748" points="25.6997008 36.05 70.2458487 36.05 70.2458487 32.6166667 25.6997008 32.6166667"></polygon>
                        <polygon id="Fill-9" fill="#0D2748" points="27.4130141 12.0166667 51.3994015 12.0166667 51.3994015 8.58333333 27.4130141 8.58333333"></polygon>
                        <polygon id="Fill-10" fill="#0D2748" points="22.273074 18.8833333 56.5393417 18.8833333 56.5393417 15.45 22.273074 15.45"></polygon>
                        <polygon id="Fill-11" fill="#0D2748" points="25.6997008 54.9333333 70.2458487 54.9333333 70.2458487 51.5 25.6997008 51.5"></polygon>
                        <polygon id="Fill-12" fill="#0D2748" points="25.6997008 73.8166667 70.2458487 73.8166667 70.2458487 70.3833333 25.6997008 70.3833333"></polygon>
                        <polygon id="Fill-13" fill="#0D2748" points="25.6997008 92.7 70.2458487 92.7 70.2458487 89.2666667 25.6997008 89.2666667"></polygon>
                        <polygon id="Fill-14" fill="#0D2748" points="39.4062078 29.1833333 42.8328346 29.1833333 42.8328346 25.75 39.4062078 25.75"></polygon>
                        <polygon id="Fill-15" fill="#0D2748" points="32.5529543 29.1833333 35.9795811 29.1833333 35.9795811 25.75 32.5529543 25.75"></polygon>
                        <polygon id="Fill-16" fill="#0D2748" points="25.6997008 29.1833333 29.1263275 29.1833333 29.1263275 25.75 25.6997008 25.75"></polygon>
                    </g>
                    <g id="Group-6" transform="translate(28.824483, 80.976691) rotate(-15.000000) translate(-28.824483, -80.976691) translate(5.824483, 57.976691)" fill="#0D2748">
                        <rect id="Rectangle-2" x="1.49569246e-12" y="3.83693077e-13" width="41" height="5" rx="1"></rect>
                        <rect id="Rectangle-2-Copy" x="25.3813414" y="13.1034245" width="20" height="5" rx="1"></rect>
                        <rect id="Rectangle-2-Copy-4" x="26.6527328" y="40.6377564" width="18.7286086" height="5" rx="1"></rect>
                        <rect id="Rectangle-2-Copy-2" x="15" y="27" width="26" height="5" rx="1"></rect>
                        <rect id="Rectangle-2-Copy-3" x="4" y="27" width="5" height="5" rx="1"></rect>
                    </g>
                </g>
                <g id="progress" transform="translate(97.000000, 0.000000)">
                    <path d="M43.464297,11.4873529 C41.3814059,7.95405882 38.5562871,5.15709804 34.9866139,3.09416667 C31.4183366,1.03169608 27.5210594,0 23.2947822,0 C19.068505,0 15.1712277,1.03169608 11.6029505,3.09416667 C8.03281188,5.1552549 5.20769307,7.95405882 3.12480198,11.4873529 C1.04144554,15.0224902 0,18.8815588 0,23.066402 C0,27.249402 1.04144554,31.1084706 3.12480198,34.6436078 C5.20769307,38.176902 8.03281188,40.9757059 11.6010891,43.0367941 C15.1712277,45.0992647 19.068505,46.1309608 23.2947822,46.1309608 C27.5210594,46.1309608 31.4183366,45.0992647 34.9866139,43.0367941 C38.5548911,40.9757059 41.3814059,38.176902 43.464297,34.6436078 C45.5457921,31.1084706 46.5872376,27.249402 46.5872376,23.066402 C46.5872376,18.8815588 45.5457921,15.0206471 43.464297,11.4873529 Z" id="checked-symbol" fill="#36BD77"></path>
                    <path d="M34.1383352,21.0845696 L22.3144911,32.7938169 C22.0378631,33.0664096 21.7051076,33.2033676 21.3122156,33.2033676 C20.9350259,33.2033676 20.6089523,33.0664096 20.3319902,32.7938169 L12.4497615,24.9885342 C12.1885017,24.7288433 12.0582059,24.4056356 12.0582059,24.0179188 C12.0582059,23.6149844 12.1885017,23.284168 12.4497615,23.0254695 L14.430592,21.0845696 C14.70722,20.8119768 15.0336277,20.6750188 15.4108174,20.6750188 C15.7893435,20.6750188 16.1154171,20.8119768 16.3910429,21.0845696 L21.3122156,25.9578263 L30.1970539,17.1819282 C30.4723455,16.9093355 30.7997555,16.7723775 31.1769452,16.7723775 C31.5541349,16.7723775 31.881879,16.9093355 32.1571707,17.1819282 L34.1383352,19.1228282 C34.4005973,19.3815266 34.5308932,19.712343 34.5308932,20.1139542 C34.5308932,20.5029943 34.4005973,20.8262019 34.1383352,21.0845696 Z" id="Path" fill="#FFFFFF"></path>
                </g>
            </g>
        </g>
    </g>
</svg>